<svg version="1.1" id="Layer_1" xmlns="http://www.w3.org/2000/svg" xmlns:xlink="http://www.w3.org/1999/xlink" x="0px" y="0px"
	 width="100%" viewBox="0 0 496 496" enable-background="new 0 0 496 496" xml:space="preserve">
<path fill="#000000" opacity="1.000000" stroke="none" 
	d="
M246.039093,109.154808 
	C259.915131,163.943039 273.672699,218.335938 287.430267,272.728851 
	C287.785553,272.755219 288.140839,272.781586 288.496124,272.807983 
	C290.224945,268.230377 292.007416,263.672211 293.673920,259.072021 
	C304.673706,228.708664 315.657867,198.339615 326.620056,167.962662 
	C328.021179,164.080002 329.603424,160.447311 334.336853,159.749100 
	C339.429565,158.997864 342.749359,161.156677 344.619781,167.003433 
	C350.092773,184.111435 355.413391,201.268219 360.787292,218.407883 
	C367.853271,240.944458 375.000610,263.456299 381.885132,286.048187 
	C382.965729,289.594208 384.591583,290.748596 388.191956,290.720001 
	C406.019867,290.578278 423.850037,290.599487 441.678528,290.709778 
	C449.551086,290.758453 453.532990,297.595703 449.642242,304.049774 
	C447.810669,307.088043 444.849609,308.170563 441.565826,308.179321 
	C420.237885,308.235870 398.909119,308.278900 377.581879,308.137787 
	C371.969727,308.100647 369.797882,305.738403 367.622620,298.779938 
	C357.992706,267.974548 348.366730,237.167938 338.722931,206.366882 
	C337.784729,203.370392 336.734314,200.409058 335.215271,195.878372 
	C332.517822,203.181122 330.284637,209.105087 328.137634,215.060135 
	C317.467346,244.655960 306.820312,274.260193 296.161896,303.860260 
	C295.767120,304.956573 295.392548,306.064850 294.917297,307.126678 
	C293.109924,311.164856 290.067841,313.366150 285.545044,313.285095 
	C280.793457,313.199982 278.900848,309.974579 277.887939,306.037598 
	C274.118469,291.386230 270.450775,276.708679 266.719086,262.047516 
	C264.217712,252.220139 261.551971,242.432449 259.214447,232.566666 
	C258.423523,229.228653 256.905060,227.886414 253.436172,227.885361 
	C242.445511,227.882004 231.443893,228.339508 220.464462,227.456879 
	C217.429138,227.212875 215.898773,228.570236 215.373611,231.591446 
	C209.714706,264.147003 204.018967,296.696198 198.281128,329.237946 
	C195.052856,347.546906 191.633118,365.822693 188.513306,384.149780 
	C187.751907,388.622589 186.032227,391.615082 181.278610,392.318787 
	C176.248184,393.063446 173.131119,390.926331 171.007309,386.398773 
	C165.349991,374.338440 159.501434,362.367493 153.691864,350.378937 
	C147.590775,337.788788 141.318268,325.279358 135.405762,312.601685 
	C133.793350,309.144348 131.631516,308.136536 128.054428,308.156799 
	C107.393311,308.273804 86.731194,308.205597 66.069458,308.234985 
	C63.551094,308.238586 61.037968,308.200500 58.684933,307.265015 
	C54.430641,305.573578 53.372807,302.050903 53.732613,297.907745 
	C54.078495,293.924896 56.289154,291.475983 60.246033,290.814514 
	C61.710121,290.569794 63.236927,290.665039 64.735130,290.664795 
	C88.562820,290.661255 112.391197,290.765625 136.217697,290.599823 
	C141.934143,290.560059 145.345352,292.602783 147.834503,297.927460 
	C156.085770,315.578186 164.793655,333.015472 173.341522,350.527252 
	C173.839508,351.547455 174.471558,352.502197 175.512955,354.303192 
	C177.909195,347.535980 178.437607,341.173401 179.557755,334.996277 
	C184.918900,305.431396 190.088562,275.831696 195.287827,246.237625 
	C200.774780,215.006271 206.217621,183.767166 211.680862,152.531647 
	C215.427109,131.112854 219.156967,109.691162 222.937668,88.278450 
	C223.731033,83.785027 225.825150,80.414017 230.999924,80.334900 
	C235.991501,80.258591 239.130356,82.588570 240.370026,87.536377 
	C242.147110,94.629066 244.063644,101.686813 246.039093,109.154808 
M228.385208,157.747757 
	C226.033508,171.316483 223.596939,184.871384 221.384628,198.462784 
	C220.763535,202.278458 217.901840,207.007248 220.461365,209.753647 
	C222.946442,212.420105 228.055405,210.559433 232.002731,210.648621 
	C238.911713,210.804718 245.826752,210.692169 253.637833,210.692169 
	C246.951141,184.293594 240.533157,158.955872 234.115173,133.618134 
	C232.200409,137.481094 231.290817,141.284790 230.538345,145.119324 
	C229.771561,149.026779 229.159332,152.964539 228.385208,157.747757 
z"/>
</svg>